<?xml version="1.0" standalone="no"?>
<!DOCTYPE svg PUBLIC "-//W3C//DTD SVG 20010904//EN"
 "http://www.w3.org/TR/2001/REC-SVG-20010904/DTD/svg10.dtd">
<svg version="1.0" xmlns="http://www.w3.org/2000/svg"
 width="3840.000000pt" height="3840.000000pt" viewBox="0 0 3840.000000 3840.000000"
 preserveAspectRatio="xMidYMid meet">
<metadata>
Created by potrace 1.14, written by Peter Selinger 2001-2017
</metadata>
<g transform="translate(0.000000,3840.000000) scale(0.100000,-0.100000)"
fill="#000000" stroke="none">
<path d="M24980 26105 c-69 -14 -130 -52 -198 -124 -44 -47 -118 -147 -157
-213 -56 -94 -125 -220 -125 -227 0 -5 -3 -11 -7 -13 -5 -1 -19 -23 -32 -48
-24 -45 -732 -1463 -884 -1770 -45 -91 -86 -168 -90 -171 -5 -3 -9 -10 -9 -15
0 -8 -634 -1294 -658 -1334 -5 -8 -23 -44 -40 -80 -17 -36 -35 -72 -41 -80 -5
-8 -13 -25 -19 -37 -12 -29 -453 -911 -470 -943 -8 -14 -14 -27 -15 -30 0 -3
-102 -210 -227 -461 -126 -251 -228 -462 -228 -468 0 -6 -4 -11 -10 -11 -5 0
-10 -9 -10 -19 0 -11 -3 -21 -7 -23 -5 -1 -60 -109 -123 -238 -63 -129 -118
-236 -122 -238 -5 -2 -8 -9 -8 -16 0 -18 -24 -66 -32 -66 -5 0 -8 -6 -8 -12 0
-12 -11 -35 -83 -173 -17 -33 -31 -62 -32 -65 0 -3 -100 -205 -222 -450 -265
-535 -341 -694 -403 -840 -36 -86 -80 -198 -85 -220 -3 -8 -15 -55 -29 -105
-20 -72 -24 -109 -22 -191 2 -98 3 -103 50 -198 27 -53 54 -102 60 -109 6 -7
23 -28 36 -47 13 -19 27 -37 30 -40 3 -3 21 -25 40 -50 51 -66 63 -81 80 -99
9 -9 29 -35 45 -56 17 -22 39 -50 50 -61 11 -12 43 -48 70 -80 114 -132 335
-339 404 -378 9 -5 18 -12 21 -16 3 -3 34 -24 70 -45 36 -21 73 -45 84 -54 10
-9 19 -15 20 -13 0 2 30 -10 66 -26 36 -16 90 -37 120 -46 30 -10 62 -20 70
-23 23 -9 32 -11 150 -30 55 -8 262 -8 310 1 155 29 188 37 245 61 17 7 53 21
80 30 85 31 352 177 375 206 3 3 16 12 30 19 22 12 238 167 250 180 3 3 23 18
45 35 22 16 42 32 45 36 5 7 165 182 190 209 8 8 59 67 114 130 125 146 131
153 191 225 28 33 55 65 60 71 6 6 17 21 25 34 8 12 25 34 37 48 12 15 58 74
102 132 45 58 88 113 96 123 8 9 15 19 15 21 0 8 234 331 242 334 4 2 6 8 2
13 -3 5 0 9 5 9 6 0 11 7 11 15 0 8 5 15 10 15 6 0 10 6 10 14 0 8 3 16 8 18
6 3 60 80 72 103 13 25 126 190 133 193 4 2 7 7 7 12 0 4 27 51 60 103 33 53
60 101 60 106 0 6 4 11 9 11 5 0 14 14 21 30 7 17 16 30 21 30 5 0 9 5 9 10 0
6 23 47 52 93 28 45 67 109 86 142 19 33 43 75 53 93 11 17 29 49 40 70 12 20
40 69 62 107 44 74 63 109 94 165 11 19 33 60 50 90 16 30 47 87 67 125 21 39
49 90 63 115 43 77 366 718 428 850 32 69 77 166 101 215 23 50 54 119 69 155
15 36 36 85 47 110 41 91 57 126 78 175 12 28 30 68 40 90 19 42 31 73 36 90
1 6 39 100 84 210 74 185 230 603 230 620 0 4 6 21 14 38 15 36 58 171 63 202
2 10 7 22 11 25 4 3 8 14 10 25 2 11 11 45 21 75 29 88 92 308 111 390 4 19
13 50 18 68 6 17 9 32 6 32 -3 0 0 8 5 18 6 11 12 30 15 43 9 45 14 65 50 211
19 79 37 157 40 174 12 73 20 290 21 524 0 302 -5 379 -40 555 -4 17 -9 46
-12 65 -18 115 -136 413 -208 525 -19 31 -35 59 -35 64 0 5 -3 11 -7 13 -5 2
-24 25 -43 53 -19 27 -46 63 -60 79 -35 41 -181 187 -211 211 -13 11 -45 36
-69 56 -113 91 -261 177 -495 284 -43 20 -268 105 -278 105 -5 0 -23 6 -40 14
-18 8 -81 30 -142 49 -219 70 -292 82 -385 62z"/>
<path d="M12339 25973 c-8 -1 -102 -4 -209 -7 -204 -5 -328 -11 -389 -20 -20
-3 -60 -8 -90 -12 -30 -3 -63 -8 -75 -10 -12 -3 -37 -7 -56 -10 -19 -2 -67
-14 -106 -25 l-71 -21 -46 25 c-77 43 -174 69 -272 71 -79 2 -114 -1 -190 -18
-81 -17 -195 -83 -252 -143 -161 -172 -199 -479 -86 -709 36 -75 117 -167 169
-194 16 -8 31 -17 34 -20 5 -5 47 -25 85 -41 105 -43 281 -54 410 -24 44 10
88 18 98 17 20 -1 137 -36 175 -52 12 -6 32 -14 45 -19 45 -17 202 -96 234
-118 19 -13 36 -23 39 -23 3 0 20 -11 38 -25 18 -14 36 -25 40 -25 7 0 221
-162 267 -202 72 -63 118 -109 160 -158 60 -73 79 -104 83 -140 3 -29 -13 -64
-31 -66 -4 0 -20 -6 -35 -12 -25 -10 -85 -18 -217 -26 -30 -2 -55 3 -77 16
-105 62 -322 83 -460 45 -246 -69 -389 -263 -398 -542 -1 -33 2 -73 6 -89 4
-16 9 -45 10 -63 1 -19 6 -37 10 -39 4 -3 8 -12 8 -20 0 -18 38 -100 64 -139
25 -37 92 -103 132 -131 36 -26 142 -68 211 -84 66 -15 239 -8 313 14 30 8 80
28 110 44 l55 29 230 -4 c127 -2 236 -5 243 -8 6 -2 12 -1 12 3 0 7 34 7 275
-3 151 -6 173 -8 255 -21 54 -9 47 -7 141 -33 96 -26 209 -77 291 -131 82 -55
186 -163 218 -226 27 -54 36 -144 16 -178 -39 -70 -131 -112 -319 -143 l-98
-16 -82 41 c-271 135 -615 63 -762 -160 -89 -134 -119 -312 -81 -486 67 -315
362 -483 716 -406 8 1 40 12 70 24 l55 20 100 -25 c87 -21 236 -49 315 -60 14
-1 43 -5 65 -8 37 -5 64 -9 185 -22 25 -3 63 -7 85 -10 83 -10 132 -15 190
-21 33 -3 83 -9 110 -14 28 -5 68 -11 90 -14 40 -6 69 -11 115 -20 14 -3 45
-10 70 -15 25 -5 59 -15 75 -21 17 -7 37 -13 45 -15 27 -7 85 -30 100 -40 8
-5 21 -10 28 -11 8 -2 21 -9 30 -17 10 -8 31 -22 47 -30 29 -15 95 -74 125
-113 60 -76 64 -160 10 -228 -47 -58 -202 -114 -425 -152 -16 -2 -52 -9 -80
-15 -27 -6 -61 -13 -75 -15 -14 -3 -52 -12 -85 -21 -33 -8 -67 -17 -75 -19 -8
-2 -33 -8 -55 -14 -33 -9 -47 -8 -80 6 -22 10 -42 18 -45 19 -20 4 -88 19
-100 22 -24 5 -151 4 -195 -2 -80 -11 -201 -57 -247 -94 -108 -87 -148 -143
-189 -264 -63 -186 -34 -408 70 -557 97 -138 276 -219 474 -215 104 2 153 10
215 36 23 10 42 16 42 14 0 -3 18 7 40 21 30 20 47 25 67 20 71 -18 240 -45
310 -51 43 -4 94 -9 113 -10 19 -2 96 -6 170 -10 322 -14 484 -23 530 -30 19
-3 53 -7 75 -10 141 -17 282 -63 368 -119 105 -67 146 -121 154 -199 5 -46 2
-59 -20 -93 -41 -64 -87 -96 -197 -134 -36 -12 -69 -23 -75 -24 -5 -2 -28 -8
-50 -14 -22 -7 -123 -32 -224 -57 -102 -25 -230 -61 -285 -80 l-100 -34 -45
20 c-137 62 -281 78 -431 48 -76 -15 -186 -69 -243 -120 -193 -170 -237 -506
-98 -749 14 -25 31 -51 38 -58 7 -7 18 -21 25 -31 40 -56 205 -139 313 -158
138 -24 324 8 427 73 46 29 49 29 183 -10 50 -15 104 -28 120 -31 29 -3 87
-13 125 -20 10 -2 40 -6 67 -10 26 -4 59 -9 73 -11 14 -2 50 -6 80 -9 30 -3
69 -7 85 -10 17 -2 62 -7 100 -11 39 -3 86 -8 105 -10 19 -3 53 -6 75 -8 83
-8 216 -23 255 -30 14 -3 45 -7 70 -10 44 -6 56 -8 130 -23 43 -9 42 -8 60
-16 8 -3 40 -13 70 -22 67 -19 185 -77 222 -110 47 -41 78 -95 78 -136 0 -86
-148 -171 -339 -195 -19 -3 -37 -6 -41 -9 -3 -2 -29 -7 -56 -10 -27 -4 -56 -8
-64 -10 -8 -2 -33 -7 -55 -10 -23 -3 -52 -7 -65 -10 -13 -3 -42 -7 -65 -10
-49 -7 -301 -64 -329 -75 -14 -5 -34 1 -67 21 -223 138 -558 103 -734 -76 -56
-57 -110 -146 -120 -194 -2 -12 -7 -26 -11 -32 -18 -30 -26 -225 -13 -314 7
-46 58 -178 71 -183 4 -2 8 -10 8 -18 0 -8 5 -14 10 -14 6 0 10 -6 10 -13 0
-11 54 -66 106 -107 32 -26 129 -68 194 -85 101 -26 242 -23 355 9 6 2 22 6
36 10 15 4 51 1 85 -8 33 -8 77 -18 98 -22 21 -3 48 -8 60 -10 35 -7 237 -33
306 -39 36 -2 88 -7 115 -10 46 -5 98 -8 290 -20 73 -5 158 -12 235 -19 25 -3
72 -7 105 -10 491 -46 801 -184 819 -364 3 -37 -1 -50 -28 -85 -18 -23 -50
-52 -71 -64 -37 -21 -164 -66 -217 -77 -13 -3 -48 -10 -78 -15 -30 -6 -66 -13
-80 -16 -14 -3 -38 -8 -55 -11 -37 -6 -219 -41 -260 -49 -16 -3 -34 -7 -40 -9
-5 -1 -28 -7 -50 -11 -22 -5 -42 -10 -45 -10 -65 -15 -258 -80 -295 -99 -23
-12 -31 -11 -63 4 -72 35 -187 53 -291 47 -323 -20 -517 -224 -527 -552 -5
-174 47 -318 157 -427 58 -57 143 -111 194 -124 110 -27 151 -32 226 -32 95 1
183 20 265 59 27 12 52 22 56 21 3 -1 21 -4 39 -7 18 -3 35 -7 38 -9 12 -8
137 -26 281 -41 30 -3 77 -7 103 -10 56 -6 201 -13 412 -20 83 -3 213 -7 290
-10 142 -5 238 -11 355 -21 36 -4 79 -8 95 -9 59 -6 223 -34 260 -45 131 -40
175 -55 205 -70 19 -10 37 -17 40 -17 9 2 94 -59 129 -93 95 -92 85 -198 -24
-253 -39 -19 -123 -48 -155 -52 -14 -2 -38 -6 -55 -9 -68 -12 -224 -33 -315
-41 -14 -1 -25 -3 -25 -4 0 -1 -20 -4 -45 -7 -48 -4 -87 -10 -135 -20 -39 -8
-61 -11 -109 -19 -21 -3 -47 -10 -57 -16 -10 -5 -19 -7 -19 -5 0 3 -39 -8 -86
-25 l-86 -30 -72 34 c-85 42 -151 58 -249 62 -60 3 -145 -6 -192 -19 -76 -21
-104 -32 -153 -60 -102 -61 -180 -160 -221 -282 -27 -83 -31 -105 -32 -210 -1
-224 101 -408 278 -499 38 -19 75 -35 84 -35 9 0 19 -3 23 -8 4 -4 11 -7 14
-8 160 -19 170 -20 252 -11 58 7 189 43 204 57 5 5 33 -11 65 -37 67 -55 196
-119 323 -163 51 -17 100 -33 108 -35 8 -1 35 -8 59 -15 24 -6 67 -15 95 -20
28 -5 60 -11 71 -13 11 -3 49 -8 85 -12 36 -4 79 -9 95 -11 51 -6 256 -16 325
-16 82 0 335 11 375 16 17 3 64 8 105 11 41 4 84 9 95 11 11 2 38 6 60 9 22 3
51 7 65 10 14 2 39 7 55 10 57 9 130 24 225 45 52 12 103 23 113 25 9 2 21 6
25 9 5 3 20 7 35 10 15 4 39 8 54 12 15 3 30 7 35 10 4 3 18 7 29 9 23 5 28 6
189 56 58 18 107 33 110 34 3 0 19 5 35 12 17 6 63 23 103 37 39 14 105 38
145 53 39 15 74 28 77 28 3 1 27 11 54 23 27 12 51 22 53 22 5 0 244 100 298
125 17 7 73 32 125 55 413 179 442 210 690 715 110 225 139 284 256 533 63
132 128 271 174 367 21 44 51 109 68 145 16 36 50 108 75 160 24 52 56 120 70
151 24 53 54 117 158 337 27 56 49 104 49 106 0 3 24 56 54 118 30 62 67 142
84 178 17 36 49 106 72 155 23 50 53 113 66 142 l23 51 -62 -24 c-34 -14 -71
-29 -82 -34 -11 -6 -45 -19 -75 -29 -30 -11 -77 -28 -105 -39 -285 -111 -657
-239 -825 -282 -25 -7 -52 -14 -60 -16 -17 -5 -181 -41 -220 -49 -108 -21
-341 -25 -415 -7 -22 6 -51 13 -65 16 -14 3 -63 25 -109 48 -68 34 -103 61
-180 139 -53 52 -101 102 -108 111 -6 8 -38 53 -71 99 -34 46 -70 96 -81 111
-12 14 -21 31 -21 37 0 6 -4 11 -9 11 -5 0 -12 8 -15 18 -4 10 -14 27 -24 38
-9 11 -57 80 -107 154 -49 74 -92 137 -96 140 -6 6 -529 791 -585 880 -70 109
-204 340 -204 350 0 6 -4 10 -10 10 -5 0 -13 12 -16 28 -4 15 -11 29 -15 32
-11 8 -339 662 -339 677 0 7 -4 13 -10 13 -5 0 -10 5 -10 10 0 6 -21 54 -46
108 -26 53 -59 124 -74 157 -15 33 -55 117 -88 187 -33 70 -63 137 -67 150 -4
13 -11 28 -15 33 -5 6 -36 73 -70 150 -34 77 -69 158 -79 180 -51 113 -61 135
-61 139 0 2 -10 25 -22 52 -12 27 -23 51 -23 54 -1 3 -6 16 -12 30 -6 14 -27
66 -47 115 -51 124 -52 127 -64 155 -38 90 -86 210 -87 220 -1 3 -9 23 -19 45
-10 22 -38 92 -62 155 -24 63 -48 124 -53 135 -4 11 -13 31 -19 45 -6 14 -36
90 -67 170 -31 80 -81 206 -112 280 -30 74 -55 140 -57 145 -1 6 -10 27 -19
49 -9 21 -17 40 -17 42 0 2 -8 23 -19 47 -10 23 -35 83 -56 132 -20 50 -45
108 -55 130 -10 22 -36 81 -58 130 -48 108 -100 221 -153 332 -21 44 -39 86
-39 92 0 6 -4 11 -10 11 -5 0 -10 4 -10 9 0 5 -19 49 -42 98 -23 48 -42 90
-43 93 -1 7 -142 295 -254 520 -98 197 -148 291 -216 410 -34 59 -71 124 -99
174 -6 11 -14 25 -19 30 -18 26 -54 84 -72 119 -11 20 -23 37 -27 37 -5 0 -8
7 -8 15 0 8 -4 15 -9 15 -5 0 -13 10 -18 23 -4 12 -66 109 -138 215 -71 106
-134 201 -140 210 -5 9 -16 21 -22 25 -7 4 -13 14 -13 22 0 7 -4 15 -8 17 -5
2 -28 32 -52 68 -24 36 -49 70 -54 77 -18 20 -29 35 -71 93 -22 30 -47 64 -57
75 -9 11 -33 40 -53 65 -56 71 -97 119 -140 169 -57 66 -359 366 -435 431 -97
84 -289 238 -340 273 -25 17 -47 33 -50 37 -8 9 -222 158 -286 197 -158 100
-303 187 -359 218 -38 21 -74 41 -80 45 -46 36 -682 359 -1068 544 -153 73
-119 67 -442 82 -77 3 -167 8 -200 9 -33 2 -161 6 -285 10 -124 4 -250 7 -281
8 -31 1 -62 1 -70 0z m690 -1084 c209 -68 340 -242 339 -451 0 -71 -21 -176
-37 -188 -4 -3 -14 -21 -21 -40 -19 -47 -123 -149 -187 -183 -158 -84 -390
-63 -508 47 -15 14 -30 26 -34 28 -11 5 -68 81 -90 120 -18 32 -35 83 -47 143
-9 39 -5 132 7 181 30 124 131 252 242 307 101 50 244 66 336 36z m1161 -181
c16 -4 59 -25 99 -49 32 -18 101 -91 101 -105 0 -6 6 -17 13 -23 15 -12 37
-94 41 -151 4 -47 -16 -125 -43 -177 -25 -46 -98 -123 -118 -123 -7 0 -13 -4
-13 -10 0 -5 -28 -18 -62 -29 -171 -53 -348 20 -424 176 -31 62 -42 139 -32
208 8 53 46 145 60 145 4 0 8 5 8 10 0 29 118 110 185 127 35 9 144 10 185 1z
m935 -174 c43 -18 90 -64 115 -113 77 -152 -36 -340 -207 -342 -64 0 -105 13
-154 51 -33 27 -71 79 -74 100 0 3 -3 10 -6 15 -13 22 -9 122 5 156 53 127
196 186 321 133z m-662 -1285 c26 -7 47 -17 47 -21 0 -4 7 -8 16 -8 18 0 108
-63 137 -95 103 -114 147 -274 117 -421 -6 -29 -12 -57 -12 -61 -1 -5 -12 -25
-24 -45 -13 -21 -24 -42 -24 -47 0 -23 -131 -138 -186 -163 -106 -48 -108 -48
-209 -49 -131 0 -238 44 -329 136 -66 67 -111 154 -129 250 -16 84 -1 195 37
278 51 113 179 217 307 251 63 17 182 14 252 -5z m1117 -173 c54 -12 100 -29
100 -38 0 -4 6 -8 13 -8 20 0 76 -50 107 -95 96 -142 82 -318 -34 -439 -73
-76 -152 -109 -254 -108 -95 1 -169 30 -231 91 -76 74 -111 152 -112 249 -1
62 26 172 42 172 5 0 9 6 9 14 0 19 67 88 118 120 41 25 144 54 187 51 11 -1
36 -5 55 -9z m984 -190 c109 -64 147 -178 101 -301 -20 -55 -93 -122 -145
-132 -102 -21 -178 -3 -236 54 -158 159 -44 421 179 408 39 -2 72 -12 101 -29z
m-807 -1572 c65 -19 161 -82 209 -137 67 -78 107 -179 116 -292 2 -30 -13
-127 -26 -161 -31 -86 -92 -169 -169 -231 -83 -65 -236 -99 -357 -79 -54 10
-190 70 -190 85 0 6 -5 11 -12 11 -33 0 -152 174 -161 235 -1 11 -5 25 -8 30
-11 19 -7 162 6 211 19 67 38 114 47 114 4 0 8 5 8 11 0 19 71 98 122 135 118
87 265 111 415 68z m1193 -197 c134 -66 209 -194 197 -339 -14 -164 -131 -291
-293 -316 -64 -11 -159 4 -215 34 -81 41 -155 143 -177 240 -37 166 69 345
233 398 76 24 187 16 255 -17z m887 -156 c87 -44 134 -123 129 -217 -6 -139
-99 -229 -236 -228 -97 0 -173 47 -212 134 -20 42 -27 121 -16 160 19 60 45
97 100 139 56 42 166 48 235 12z m-1157 -1602 c103 -30 202 -109 253 -201 15
-27 24 -48 21 -48 -4 0 -2 -6 4 -12 21 -27 31 -140 18 -208 -13 -68 -18 -85
-27 -88 -5 -2 -9 -12 -9 -23 0 -10 -4 -19 -10 -19 -5 0 -10 -5 -10 -11 0 -6
-6 -16 -12 -23 -7 -7 -22 -25 -33 -40 -24 -33 -104 -87 -164 -110 -95 -37
-232 -27 -335 26 -80 41 -189 177 -200 251 -1 7 -4 17 -7 22 -14 24 -1 172 19
229 19 52 95 166 111 166 3 0 17 10 31 23 77 69 236 99 350 66z m1015 -158 c6
-3 15 -6 21 -7 28 -4 86 -39 115 -68 126 -126 129 -316 8 -437 -158 -158 -417
-105 -504 104 -33 80 -21 202 28 276 25 38 102 107 115 104 4 -1 13 3 20 9 27
23 167 36 197 19z m845 -161 c148 -76 147 -294 -2 -371 -95 -49 -198 -21 -274
73 -52 65 -35 197 35 267 58 58 161 72 241 31z m-1004 -1486 c73 -22 128 -55
181 -110 50 -51 89 -112 97 -151 1 -10 7 -29 13 -42 12 -31 8 -159 -7 -208
-19 -63 -50 -115 -99 -166 -88 -91 -186 -131 -308 -124 -93 4 -107 8 -174 42
-70 35 -144 109 -176 175 -15 30 -28 60 -29 65 -30 127 -24 204 24 305 32 66
110 149 172 180 92 48 215 61 306 34z m1019 -159 c80 -16 173 -101 207 -190
17 -42 21 -168 8 -194 -5 -9 -16 -33 -25 -53 -40 -92 -162 -166 -269 -163
-103 4 -153 25 -220 92 -69 69 -103 183 -82 279 7 32 34 94 48 108 7 7 22 25
33 39 11 15 25 27 32 27 7 0 13 4 13 8 0 11 66 41 111 52 34 8 89 6 144 -5z
m809 -146 c48 -13 120 -86 131 -131 26 -110 -14 -207 -104 -253 -176 -89 -369
95 -284 272 47 100 145 143 257 112z m-809 -1626 c73 -22 114 -45 166 -94 116
-109 159 -267 115 -421 -16 -54 -59 -129 -77 -136 -5 -2 -9 -8 -9 -14 0 -23
-117 -99 -186 -122 -136 -44 -303 -3 -408 102 -180 178 -156 476 50 623 25 19
49 34 53 35 3 0 20 6 36 14 73 31 179 37 260 13z m1035 -165 c77 -24 141 -81
178 -158 44 -92 33 -245 -23 -306 -5 -6 -17 -21 -25 -33 -8 -11 -20 -21 -27
-21 -6 0 -16 -6 -20 -13 -22 -37 -113 -66 -195 -63 -268 13 -389 332 -199 524
24 23 53 45 67 48 13 3 24 10 24 14 0 12 99 28 145 23 22 -2 56 -9 75 -15z
m817 -151 c98 -52 141 -163 101 -263 -18 -45 -69 -104 -90 -104 -7 0 -24 -7
-37 -16 -17 -13 -37 -15 -81 -11 -84 9 -126 35 -168 106 -47 79 -29 194 40
258 57 53 165 67 235 30z m-721 -1512 c93 -27 194 -107 237 -189 37 -71 48
-109 51 -186 15 -313 -310 -523 -593 -382 -103 52 -197 173 -217 282 -9 50 -5
185 6 185 1 0 3 7 5 15 8 42 51 118 92 161 109 116 265 159 419 114z m1056
-173 c163 -72 228 -272 140 -429 -14 -27 -40 -59 -56 -73 -27 -23 -126 -83
-126 -76 0 1 -21 0 -46 -4 -53 -8 -123 3 -174 27 -54 25 -133 112 -152 168
-23 65 -19 175 8 235 23 51 109 144 124 135 6 -3 10 -2 10 4 0 5 19 16 43 24
59 21 170 15 229 -11z m753 -127 c82 -23 142 -94 149 -178 10 -121 -77 -224
-195 -231 -118 -7 -221 88 -221 205 0 93 56 172 143 201 57 19 64 19 124 3z"/>
<path d="M9705 25861 c-22 -5 -53 -14 -70 -20 -16 -7 -31 -12 -32 -13 -15 -1
-43 -12 -43 -17 0 -3 -12 -12 -27 -19 -82 -37 -164 -156 -193 -280 -13 -56
-20 -212 -9 -212 4 0 6 -8 6 -17 -1 -29 15 -93 24 -99 5 -3 9 -12 9 -19 0 -25
67 -121 111 -158 131 -113 346 -145 532 -80 26 9 47 21 47 27 0 5 3 6 6 3 10
-9 63 29 112 82 62 66 94 132 117 246 13 63 10 139 -10 245 -6 33 -40 107 -67
147 -56 83 -153 148 -266 178 -54 14 -187 17 -247 6z"/>
<path d="M8535 25789 c-138 -21 -244 -96 -298 -210 -41 -87 -53 -201 -32 -299
8 -40 44 -128 60 -148 42 -54 96 -98 153 -124 59 -27 79 -31 174 -34 119 -3
187 14 265 67 45 32 103 96 103 116 0 7 4 13 8 13 5 0 17 28 28 63 23 74 25
234 5 288 -41 107 -94 176 -160 211 -14 7 -28 16 -31 19 -9 10 -125 38 -175
42 -27 2 -72 0 -100 -4z"/>
<path d="M7410 25645 c-19 -8 -43 -18 -52 -21 -10 -4 -18 -10 -18 -15 0 -5 -6
-9 -12 -9 -14 0 -58 -59 -58 -77 0 -6 -6 -15 -13 -21 -24 -20 -28 -177 -7
-227 7 -16 13 -33 12 -36 0 -3 16 -24 36 -47 51 -56 120 -85 207 -88 169 -5
285 101 288 264 2 123 -47 215 -140 262 -60 31 -187 38 -243 15z"/>
<path d="M10391 23954 c-143 -33 -277 -140 -316 -254 -1 -3 -5 -13 -8 -22 -29
-77 -29 -74 -32 -185 -5 -158 35 -272 128 -365 42 -43 117 -92 157 -103 3 -1
12 -4 20 -7 79 -31 223 -36 317 -11 142 37 235 109 292 225 47 96 60 154 56
265 -8 229 -129 393 -330 449 -75 20 -213 24 -284 8z"/>
<path d="M9167 23868 c-171 -55 -261 -187 -268 -388 -1 -44 9 -119 21 -145 50
-117 87 -165 162 -209 120 -70 275 -79 412 -24 287 115 311 580 38 734 -99 56
-251 69 -365 32z"/>
<path d="M8128 23746 c-26 -7 -55 -19 -65 -26 -92 -70 -122 -130 -125 -245 -1
-47 30 -155 43 -155 5 0 9 -5 9 -11 0 -17 45 -56 90 -79 84 -43 196 -43 279 0
196 100 180 432 -25 510 -45 17 -154 21 -206 6z"/>
<path d="M11697 22274 c-1 -1 -22 -5 -46 -9 -135 -20 -257 -107 -320 -226
-102 -195 -70 -459 73 -604 52 -52 154 -110 211 -120 17 -2 41 -7 55 -10 44
-10 166 -6 217 6 74 18 167 66 216 112 43 40 115 147 99 147 -4 0 -2 4 4 8 21
14 41 127 39 218 -5 247 -131 411 -354 464 -47 11 -187 21 -194 14z"/>
<path d="M10401 22174 c-40 -13 -78 -29 -84 -34 -47 -37 -97 -84 -97 -92 0 -5
-9 -18 -20 -30 -11 -12 -20 -29 -20 -38 0 -9 -4 -20 -9 -25 -16 -17 -26 -76
-26 -165 0 -103 5 -130 39 -202 65 -136 198 -212 371 -212 128 1 218 36 298
117 181 182 133 547 -86 655 -116 57 -247 66 -366 26z"/>
<path d="M9395 22063 c-16 -3 -34 -9 -39 -14 -6 -5 -18 -9 -29 -9 -10 0 -40
-22 -67 -49 -63 -64 -85 -132 -77 -237 5 -71 30 -128 76 -174 86 -86 266 -98
369 -25 75 54 112 138 108 247 -7 184 -144 289 -341 261z"/>
<path d="M12550 20305 c-155 -52 -242 -140 -295 -296 -33 -96 -32 -254 3 -349
3 -8 6 -17 6 -20 1 -3 13 -27 26 -53 128 -253 539 -314 766 -115 92 81 150
221 148 358 -1 116 -11 163 -48 245 -76 164 -229 251 -441 252 -77 0 -115 -5
-165 -22z"/>
<path d="M11425 20246 c-159 -26 -263 -119 -310 -276 -21 -71 -18 -207 5 -276
59 -170 196 -262 393 -262 123 0 253 51 305 120 7 9 19 24 27 32 8 8 15 19 15
25 0 6 4 11 9 11 4 0 18 33 30 73 37 124 31 239 -18 342 -57 119 -146 186
-281 210 -58 11 -109 11 -175 1z"/>
<path d="M10375 20119 c-96 -13 -166 -59 -204 -134 -58 -114 -39 -264 44 -347
71 -72 206 -96 310 -57 30 11 62 27 70 35 8 9 15 12 15 8 0 -4 13 11 29 34 80
110 77 281 -6 373 -63 70 -157 102 -258 88z"/>
<path d="M13450 18499 c-31 -4 -83 -18 -115 -30 -131 -48 -207 -127 -267 -274
-27 -69 -32 -250 -7 -335 58 -204 238 -333 464 -333 304 1 504 207 491 508 -6
142 -46 243 -130 327 -68 69 -71 71 -146 100 -95 38 -194 50 -290 37z"/>
<path d="M12208 18415 c-26 -7 -66 -22 -90 -34 -47 -22 -138 -101 -138 -119 0
-6 -6 -17 -13 -24 -54 -54 -71 -283 -28 -391 12 -31 29 -63 37 -71 8 -8 14
-18 14 -22 0 -4 19 -25 42 -46 80 -72 182 -107 303 -102 79 2 98 6 164 31 171
63 260 246 228 468 -11 73 -50 149 -108 209 -33 33 -59 57 -59 52 0 -5 -8 -2
-17 6 -52 45 -237 68 -335 43z"/>
<path d="M11189 18296 c-2 -2 -18 -6 -35 -9 -17 -3 -45 -12 -64 -22 -33 -17
-103 -82 -107 -100 -1 -6 -10 -30 -18 -54 -20 -54 -18 -150 3 -206 41 -108
133 -168 255 -167 81 1 87 2 139 24 52 23 94 66 122 129 22 46 25 65 22 134
-4 109 -30 160 -112 225 -10 8 -35 20 -54 27 -35 12 -144 25 -151 19z"/>
<path d="M14240 16735 c-36 -6 -78 -17 -95 -24 -16 -7 -30 -11 -30 -10 0 1
-18 -10 -40 -25 -22 -14 -51 -34 -65 -43 -44 -28 -121 -151 -134 -213 -3 -14
-9 -38 -14 -55 -14 -45 -7 -203 10 -261 41 -133 118 -228 230 -282 89 -42 134
-52 235 -53 244 0 411 120 474 340 26 92 21 253 -12 336 -25 66 -76 145 -118
182 -36 33 -178 100 -226 108 -78 11 -151 12 -215 0z"/>
<path d="M13035 16662 c-3 -3 -11 -7 -18 -8 -31 -6 -101 -36 -130 -55 -59 -41
-130 -137 -143 -194 -1 -5 -6 -28 -12 -51 -9 -41 -9 -155 1 -204 39 -190 203
-311 412 -304 39 1 79 4 91 7 61 15 105 32 115 44 6 7 17 13 23 13 38 0 156
168 156 222 0 9 3 19 8 22 9 5 7 167 -3 216 -10 49 -64 149 -100 183 -79 77
-164 109 -297 112 -53 2 -100 0 -103 -3z"/>
<path d="M11980 16530 c-14 -3 -38 -10 -55 -14 -41 -10 -108 -72 -136 -126
-32 -61 -33 -204 -2 -265 61 -118 184 -171 333 -142 40 7 113 52 139 86 36 45
74 151 60 167 -6 8 -6 14 -1 18 8 5 6 30 -12 104 -7 30 -39 82 -68 109 -53 50
-187 83 -258 63z"/>
<path d="M15000 14726 c-152 -44 -245 -128 -301 -271 -32 -79 -45 -261 -23
-315 3 -8 8 -25 10 -38 19 -98 119 -222 217 -270 100 -50 147 -60 260 -57 106
3 133 7 164 23 10 6 20 10 23 10 17 1 68 26 105 52 78 54 147 160 171 265 9
36 19 120 18 140 -1 21 -16 137 -19 145 -41 127 -120 228 -218 279 -121 62
-276 76 -407 37z"/>
<path d="M13885 14668 c-220 -27 -359 -196 -349 -423 4 -89 9 -112 45 -191 34
-76 125 -155 210 -183 129 -42 290 -25 398 43 162 103 219 365 120 558 -70
137 -246 218 -424 196z"/>
<path d="M12750 14525 c-105 -33 -173 -134 -174 -255 0 -75 6 -105 30 -155 45
-94 192 -157 311 -131 48 10 118 48 146 79 51 56 69 111 68 209 -1 108 -56
200 -146 242 -53 24 -175 30 -235 11z"/>
<path d="M16165 12945 c-198 -40 -319 -153 -369 -344 -32 -124 -5 -310 61
-414 57 -92 180 -177 278 -193 11 -1 31 -5 45 -9 43 -10 146 -7 207 5 182 37
309 159 356 342 15 58 16 205 2 263 -4 17 -8 35 -9 41 -1 6 -16 40 -34 77 -50
101 -175 202 -274 221 -13 2 -30 7 -38 10 -30 12 -166 12 -225 1z"/>
<path d="M14941 12864 c-136 -36 -223 -119 -270 -256 -26 -75 -23 -221 7 -301
20 -55 86 -157 101 -157 4 0 16 -8 27 -18 30 -28 88 -52 162 -67 63 -13 168
-14 188 -3 5 3 33 11 62 19 28 7 52 16 52 20 0 4 10 11 23 15 24 7 105 86 125
123 40 70 55 136 54 236 -1 80 -2 93 -16 130 -5 11 -13 34 -19 50 -9 26 -52
89 -82 121 -21 22 -93 62 -141 79 -66 23 -204 27 -273 9z"/>
<path d="M13885 12736 c-131 -41 -199 -139 -194 -280 3 -81 27 -142 75 -190
102 -102 301 -105 405 -6 20 19 62 80 55 80 -3 0 1 12 9 27 10 18 13 53 11
107 -4 126 -45 194 -148 247 -49 25 -156 32 -213 15z"/>
</g>
</svg>
